<svg width="16" height="16" viewBox="0 0 16 16" fill="none" xmlns="http://www.w3.org/2000/svg">
<path d="M3.33333 6.66666C2.6 6.66666 2 7.26666 2 7.99999C2 8.73332 2.6 9.33332 3.33333 9.33332C4.06667 9.33332 4.66667 8.73332 4.66667 7.99999C4.66667 7.26666 4.06667 6.66666 3.33333 6.66666Z" fill="currentColor"/>
<path d="M12.6663 6.66666C11.933 6.66666 11.333 7.26666 11.333 7.99999C11.333 8.73332 11.933 9.33332 12.6663 9.33332C13.3997 9.33332 13.9997 8.73332 13.9997 7.99999C13.9997 7.26666 13.3997 6.66666 12.6663 6.66666Z" fill="currentColor"/>
<path d="M8.00033 6.66666C7.26699 6.66666 6.66699 7.26666 6.66699 7.99999C6.66699 8.73332 7.26699 9.33332 8.00033 9.33332C8.73366 9.33332 9.33366 8.73332 9.33366 7.99999C9.33366 7.26666 8.73366 6.66666 8.00033 6.66666Z" fill="currentColor"/>
</svg>
