<svg width="21" height="20" viewBox="0 0 21 20" fill="none" xmlns="http://www.w3.org/2000/svg">
<path opacity="0.4" d="M18.8341 9.99967V14.1663C18.8341 16.6663 17.1675 18.333 14.6675 18.333H6.85915C7.11748 18.1163 7.34247 17.8497 7.51747 17.5497C7.8258 17.0497 8.00081 16.458 8.00081 15.833C8.00081 13.9913 6.50915 12.4997 4.66748 12.4997C3.66748 12.4997 2.77581 12.9413 2.16748 13.633V9.99967C2.16748 7.73301 3.53415 6.14967 5.65915 5.88301C5.87582 5.84967 6.10081 5.83301 6.33415 5.83301H14.6675C14.8841 5.83301 15.0925 5.84133 15.2925 5.87466C17.4425 6.12466 18.8341 7.71634 18.8341 9.99967Z" fill="currentColor"/>
<path d="M15.292 5.8753C15.092 5.84197 14.8837 5.83364 14.667 5.83364H6.33369C6.10036 5.83364 5.87536 5.85031 5.65869 5.88364C5.77536 5.65031 5.94204 5.43367 6.14204 5.23367L8.85037 2.51699C9.99204 1.38366 11.842 1.38366 12.9837 2.51699L14.442 3.99196C14.9753 4.51696 15.2587 5.18363 15.292 5.8753Z" fill="currentColor"/>
<path d="M18.8341 10.417H16.3341C15.4175 10.417 14.6675 11.167 14.6675 12.0837C14.6675 13.0003 15.4175 13.7503 16.3341 13.7503H18.8341" fill="currentColor"/>
<path d="M4.66585 12.5C3.66585 12.5 2.77419 12.9417 2.16585 13.6333C1.64919 14.225 1.33252 14.9917 1.33252 15.8333C1.33252 16.4583 1.50753 17.05 1.81587 17.55C2.39087 18.5167 3.44919 19.1667 4.66585 19.1667C5.50752 19.1667 6.27419 18.8583 6.85752 18.3333C7.11586 18.1167 7.34084 17.85 7.51584 17.55C7.82417 17.05 7.99919 16.4583 7.99919 15.8333C7.99919 13.9917 6.50752 12.5 4.66585 12.5ZM5.99917 17.15C5.87417 17.275 5.71586 17.3333 5.55753 17.3333C5.39919 17.3333 5.24083 17.275 5.11583 17.15L4.67419 16.7083L4.21587 17.1666C4.09087 17.2916 3.93251 17.35 3.77418 17.35C3.61585 17.35 3.45754 17.2916 3.33254 17.1666C3.09087 16.925 3.09087 16.525 3.33254 16.2833L3.79086 15.825L3.34917 15.3834C3.10751 15.1417 3.10751 14.7417 3.34917 14.5C3.59084 14.2584 3.99084 14.2584 4.2325 14.5L4.67419 14.9417L5.09086 14.525C5.33253 14.2833 5.73253 14.2833 5.97419 14.525C6.21586 14.7667 6.21586 15.1667 5.97419 15.4083L5.55753 15.825L5.99917 16.2667C6.24083 16.5083 6.24083 16.9 5.99917 17.15Z" fill="currentColor"/>
</svg>
