<svg width="24" height="24" viewBox="0 0 24 24" fill="none" xmlns="http://www.w3.org/2000/svg">
<g clip-path="url(#clip0_1825_2567)">
<path d="M12.0003 22.656C17.9915 22.656 22.8483 17.7991 22.8483 11.808C22.8483 5.81678 17.9915 0.959961 12.0003 0.959961C6.00916 0.959961 1.15234 5.81678 1.15234 11.808C1.15234 17.7991 6.00916 22.656 12.0003 22.656Z" fill="white"/>
<path d="M9.9456 1.20955C6.8352 1.77595 4.0704 3.77275 2.5536 6.55675C2.016 7.54555 1.4784 9.16795 1.3344 10.2624C1.0848 12.1056 1.4496 14.3712 2.256 16.08C3.7056 19.1328 6.6912 21.4176 9.984 21.9936C10.896 22.1472 12.7968 22.1472 13.728 21.984C14.4864 21.8592 15.9072 21.3792 16.6176 21.024C18.6432 19.9872 20.352 18.2112 21.36 16.0992C22.128 14.4864 22.32 13.5744 22.32 11.568C22.32 10.0992 22.2912 9.83035 22.0512 8.93755C21.0144 4.98235 17.6832 1.91035 13.6704 1.20955C12.6336 1.02715 10.9632 1.02715 9.9456 1.20955ZM14.16 2.95675C17.8272 4.03195 20.3424 7.02715 20.7264 10.7712C20.976 13.2864 20.112 15.792 18.3456 17.6832C17.1552 18.9504 15.7248 19.8144 14.064 20.2752C12.9792 20.5728 10.6656 20.5728 9.5808 20.2752C6.2208 19.3536 3.648 16.6176 3.0144 13.2864C2.8224 12.2688 2.88 10.2624 3.12 9.38875C4.0704 5.93275 6.7776 3.45595 10.368 2.74555C10.5024 2.72635 11.2608 2.71675 12.048 2.73595C13.152 2.75515 13.6416 2.81275 14.16 2.95675Z" fill="black"/>
<path d="M10.0412 3.64805C8.33239 4.01285 6.52758 5.13605 5.42358 6.54725C4.06038 8.27525 3.46518 10.4353 3.73398 12.6529C3.86838 13.7089 4.01238 14.1697 4.53078 15.2545C5.55798 17.3569 7.54519 18.9505 9.82039 19.4881C12.0188 20.0161 14.1692 19.6897 16.0412 18.5665C17.7692 17.5201 18.9596 15.9841 19.6412 13.9201C19.8812 13.1713 19.91 12.9793 19.91 11.6161C19.9196 10.1665 19.91 10.0993 19.5932 9.16806C18.8252 6.90245 17.4812 5.33765 15.4076 4.31045C13.7564 3.48485 11.894 3.25445 10.0412 3.64805ZM14.4956 6.70086L14.7164 6.88325L13.334 8.24646C11.6828 9.86886 11.4044 10.0321 10.3196 10.0321C9.65719 10.0225 9.48439 9.98406 9.06199 9.75365C8.79319 9.60965 8.31319 9.23526 8.00599 8.91846L7.44918 8.35206L7.87158 7.92006L8.29399 7.48806L8.83159 8.00646C9.64759 8.82246 10.31 9.01446 11.0204 8.64966C11.2124 8.54405 11.7212 8.11206 12.1436 7.68006C12.566 7.24805 13.046 6.80646 13.1996 6.71045C13.574 6.48005 14.2172 6.47046 14.4956 6.70086ZM15.5324 7.70886L15.9356 8.12165L15.4076 8.64006C14.8124 9.23526 14.5916 9.62886 14.5916 10.1185C14.5916 10.6657 14.8796 11.1073 15.878 12.0961C16.8572 13.0657 17.0492 13.4017 16.8956 13.9297C16.694 14.6209 16.6748 14.6113 15.2444 13.1809C13.6028 11.5489 13.3916 11.2129 13.3916 10.1281C13.3916 9.51366 13.4396 9.27366 13.622 8.92806C13.814 8.54406 14.9276 7.29606 15.0716 7.29606C15.1004 7.29606 15.3116 7.47846 15.5324 7.70886ZM10.0988 12.0001C10.2524 12.3169 10.31 12.6241 10.31 13.1521C10.3196 14.0737 10.0316 14.6977 9.21559 15.5041L8.63959 16.0705L8.20758 15.6481L7.77559 15.2257L8.29399 14.6881C8.89879 14.0545 9.11959 13.6609 9.11959 13.2097C9.11959 12.6433 8.94678 12.3841 7.91959 11.3281C7.37239 10.7713 6.87318 10.1953 6.81558 10.0417C6.69078 9.71526 6.76759 9.24486 6.98839 8.99525C7.13239 8.83206 7.21878 8.90885 8.51478 10.1953C9.37879 11.0593 9.96439 11.7217 10.0988 12.0001ZM14.5244 13.4401C14.7644 13.5553 15.2348 13.9297 15.5612 14.2657L16.166 14.8801L15.7916 15.2641C15.59 15.4753 15.3692 15.6481 15.3116 15.6481C15.2636 15.6481 15.0044 15.4273 14.7452 15.1585C14.2172 14.6113 13.814 14.4001 13.2956 14.4001C12.7292 14.4001 12.3836 14.6209 11.4716 15.5521C11.0012 16.0321 10.4924 16.4929 10.3484 16.5697C10.0028 16.7521 9.56119 16.7425 9.19639 16.5505L8.88918 16.3969L10.3772 14.9281C11.6348 13.6801 11.9324 13.4401 12.3356 13.3057C12.9884 13.0945 13.958 13.1521 14.5244 13.4401Z" fill="black"/>
</g>
<defs>
<clipPath id="clip0_1825_2567">
<rect width="24" height="24" fill="white"/>
</clipPath>
</defs>
</svg>
