<svg width="24" height="24" viewBox="0 0 24 24" fill="none" xmlns="http://www.w3.org/2000/svg">
<g clip-path="url(#clip0_1825_2565)">
<mask id="mask0_1825_2565" style="mask-type:luminance" maskUnits="userSpaceOnUse" x="0" y="0" width="24" height="24">
<path d="M0 0.363525H23.48V23.6363H0V0.363525Z" fill="white"/>
</mask>
<g mask="url(#mask0_1825_2565)">
<path d="M2.24707 18.6667C3.23033 20.0344 4.49157 21.1787 5.94811 22.0248C7.40464 22.8708 9.02356 23.3994 10.6987 23.5758C9.83689 22.2784 8.58452 21.0857 7.02089 20.1773C5.45725 19.2682 3.80052 18.7729 2.2478 18.6667H2.24707Z" fill="url(#paint0_linear_1825_2565)"/>
<path d="M9.12192 16.5599C6.10883 14.8101 2.84774 14.3635 0.514648 15.1519C0.740103 15.8966 1.03683 16.6173 1.40192 17.3046C3.42883 17.2573 5.64192 17.8079 7.70229 19.0042C9.76192 20.2006 11.3372 21.8515 12.3008 23.6362C13.079 23.6122 13.8528 23.5126 14.6114 23.3402C14.1401 20.9235 12.1343 18.3112 9.12192 16.5599Z" fill="url(#paint1_linear_1825_2565)"/>
<path d="M23.48 9.45436C23.0969 7.89621 22.4037 6.43123 21.4419 5.14692C20.4801 3.8626 19.2693 2.7853 17.8818 1.97933C16.4944 1.17337 14.9587 0.655271 13.3666 0.455987C11.7745 0.256704 10.1585 0.380319 8.61523 0.819451C11.1941 1.13509 14.0552 2.10309 16.8625 3.73363C19.6698 5.36418 21.9294 7.37072 23.4807 9.45582L23.48 9.45436Z" fill="url(#paint2_linear_1825_2565)"/>
<path d="M19.7287 15.1695C18.4087 12.9782 16.1483 10.8786 13.3629 9.2611C10.5774 7.64292 7.63562 6.71928 5.07998 6.65746C2.83198 6.6051 1.14471 7.25819 0.452347 8.45092L0.437801 8.47128C0.375983 8.69528 0.322165 8.91928 0.273438 9.14401C1.24071 8.76219 2.36071 8.54983 3.60726 8.52583C6.37816 8.47419 9.47853 9.36001 12.3403 11.0226C15.2022 12.6851 17.5098 14.9411 18.8363 17.3731C19.4313 18.4684 19.8029 19.5476 19.9491 20.5782C20.1207 20.4255 20.2887 20.2669 20.4516 20.1026L20.4633 20.0793C21.1556 18.8858 20.888 17.096 19.7287 15.1695Z" fill="url(#paint3_linear_1825_2565)"/>
<path d="M11.2436 12.9075C6.98036 10.4304 2.26691 10.0428 0 11.7708C0.00436364 12.3126 0.0458182 12.853 0.123636 13.3882C0.790337 13.186 1.47748 13.0587 2.17236 13.0086C4.70545 12.8181 7.49746 13.5242 10.0313 14.997C12.5651 16.4697 14.5622 18.5461 15.6516 20.8391C15.9527 21.4675 16.1825 22.1271 16.336 22.8071C16.8407 22.6093 17.3302 22.3781 17.8029 22.1141C18.1825 19.2879 15.5105 15.3861 11.2444 12.9075H11.2436Z" fill="url(#paint4_linear_1825_2565)"/>
<path d="M21.9226 11.5011C20.5881 9.31196 18.3081 7.20723 15.503 5.57814C12.6979 3.94978 9.74446 3.01087 7.18083 2.93596C5.22592 2.87923 3.71173 3.35341 2.92773 4.24796C6.18592 3.69523 10.4856 4.62396 14.6521 7.04432C18.8194 9.46541 21.7554 12.7403 22.8892 15.8443C23.2776 14.7207 22.9401 13.1709 21.9226 11.5011Z" fill="url(#paint5_linear_1825_2565)"/>
</g>
</g>
<defs>
<linearGradient id="paint0_linear_1825_2565" x1="15.6362" y1="5.09075" x2="4.84853" y2="23.6362" gradientUnits="userSpaceOnUse">
<stop stop-color="#C7F284"/>
<stop offset="1" stop-color="#00BEF0"/>
</linearGradient>
<linearGradient id="paint1_linear_1825_2565" x1="15.6361" y1="5.09079" x2="4.84847" y2="23.6362" gradientUnits="userSpaceOnUse">
<stop stop-color="#C7F284"/>
<stop offset="1" stop-color="#00BEF0"/>
</linearGradient>
<linearGradient id="paint2_linear_1825_2565" x1="15.6363" y1="5.09072" x2="4.84869" y2="23.6362" gradientUnits="userSpaceOnUse">
<stop stop-color="#C7F284"/>
<stop offset="1" stop-color="#00BEF0"/>
</linearGradient>
<linearGradient id="paint3_linear_1825_2565" x1="15.6363" y1="5.09092" x2="4.84871" y2="23.6364" gradientUnits="userSpaceOnUse">
<stop stop-color="#C7F284"/>
<stop offset="1" stop-color="#00BEF0"/>
</linearGradient>
<linearGradient id="paint4_linear_1825_2565" x1="15.6364" y1="5.09078" x2="4.84873" y2="23.6362" gradientUnits="userSpaceOnUse">
<stop stop-color="#C7F284"/>
<stop offset="1" stop-color="#00BEF0"/>
</linearGradient>
<linearGradient id="paint5_linear_1825_2565" x1="15.6368" y1="5.09087" x2="4.84919" y2="23.6363" gradientUnits="userSpaceOnUse">
<stop stop-color="#C7F284"/>
<stop offset="1" stop-color="#00BEF0"/>
</linearGradient>
<clipPath id="clip0_1825_2565">
<rect width="24" height="24" fill="white"/>
</clipPath>
</defs>
</svg>
