<svg width="24" height="24" viewBox="0 0 24 24" fill="none" xmlns="http://www.w3.org/2000/svg">
<g clip-path="url(#clip0_1825_2566)">
<path d="M24 12C24 18.6274 18.6274 24 12 24C5.37259 24 0 18.6274 0 12C0 5.37259 5.37259 0 12 0C18.6274 0 24 5.37259 24 12Z" fill="#E6DAFE"/>
<path d="M13.8079 11.0198C13.8079 11.8722 13.1173 12.5633 12.2655 12.5633V14.1069C13.9691 14.1069 15.3504 12.7246 15.3504 11.0198C15.3504 9.31492 13.9691 7.93262 12.2655 7.93262C11.7039 7.93262 11.1766 8.08271 10.7231 8.3459C9.80085 8.87927 9.18066 9.87693 9.18066 11.0198V18.7377L10.7231 20.2812V11.0198C10.7231 10.1674 11.4137 9.47618 12.2655 9.47618C13.1173 9.47618 13.8079 10.1674 13.8079 11.0198Z" fill="#242235"/>
<path d="M12.2654 4.8457C11.1415 4.8457 10.0882 5.14661 9.18054 5.67231C8.60124 6.00731 8.0803 6.43433 7.63814 6.93663C6.67821 8.02503 6.0957 9.45481 6.0957 11.02V15.6508L7.63814 17.1944V11.02C7.63814 9.64889 8.23389 8.41669 9.18054 7.56843C9.62562 7.17051 10.1481 6.85635 10.723 6.65389C11.205 6.48214 11.7247 6.38929 12.2654 6.38929C14.8207 6.38929 16.8927 8.46274 16.8927 11.02C16.8927 13.5773 14.8207 15.6508 12.2654 15.6508V17.1944C15.6732 17.1944 18.4351 14.4297 18.4351 11.02C18.4351 7.61033 15.6732 4.8457 12.2654 4.8457Z" fill="#242235"/>
</g>
<defs>
<clipPath id="clip0_1825_2566">
<rect width="24" height="24" fill="white"/>
</clipPath>
</defs>
</svg>
