<svg width="24" height="24" viewBox="0 0 24 24" fill="none" xmlns="http://www.w3.org/2000/svg">
<g clip-path="url(#clip0_1825_2569)">
<mask id="mask0_1825_2569" style="mask-type:luminance" maskUnits="userSpaceOnUse" x="0" y="0" width="24" height="24">
<path d="M0 0H24V24H0V0Z" fill="white"/>
</mask>
<g mask="url(#mask0_1825_2569)">
<path d="M0 12C0 5.37257 5.37257 0 12 0C18.6274 0 24 5.37257 24 12C24 18.6274 18.6274 24 12 24C5.37257 24 0 18.6274 0 12Z" fill="#BEBEBE"/>
<path d="M9.10506 9.23796H15.0125L14.1511 6.92668C14.1176 6.83184 14.0564 6.74927 13.9753 6.68968L9.10506 9.23796ZM9.08877 6.49468C9.29792 5.93239 9.7582 5.57153 10.2656 5.57153H13.7589C14.2663 5.57153 14.7266 5.93239 14.9362 6.49468L15.7976 8.80596C16.0552 9.49939 15.6382 10.2858 15.0125 10.2858H9.01249C8.38677 10.2858 7.96977 9.49939 8.2282 8.80596L9.08963 6.49468H9.08877ZM4.3852 15.238H10.2811L9.41963 12.9267C9.38613 12.8319 9.32491 12.7493 9.24392 12.6897L4.3852 15.238ZM4.36849 12.4947C4.57849 11.9324 5.03877 11.5715 5.54577 11.5715H9.02749C9.53492 11.5715 9.99606 11.9324 10.2048 12.4947L11.0662 14.806C11.3242 15.4994 10.9076 16.2858 10.2811 16.2858H4.29177C3.66606 16.2858 3.24906 15.4994 3.50749 14.806L4.36849 12.4947ZM19.7499 15.238H13.8142L18.7128 12.6901C18.7899 12.7441 18.8512 12.8255 18.8898 12.9271L19.7499 15.238ZM14.9756 11.5715C14.4678 11.5715 14.0071 11.9324 13.7979 12.4947L12.9369 14.806C12.6785 15.4994 13.0955 16.2858 13.7216 16.2858H19.7503C20.3761 16.2858 20.7931 15.4994 20.5346 14.806L19.6732 12.4947C19.4653 11.9324 19.0051 11.5715 18.4976 11.5715H14.9756Z" fill="white"/>
</g>
</g>
<defs>
<clipPath id="clip0_1825_2569">
<rect width="24" height="24" fill="white"/>
</clipPath>
</defs>
</svg>
