<svg width="24" height="24" viewBox="0 0 24 24" fill="none" xmlns="http://www.w3.org/2000/svg">
<g clip-path="url(#clip0_1825_2568)">
<path d="M0 12C0 5.37257 5.37257 0 12 0C18.6274 0 24 5.37257 24 12C24 18.6274 18.6274 24 12 24C5.37257 24 0 18.6274 0 12Z" fill="#D69A00"/>
<path d="M9.10604 9.23796H15.0135L14.152 6.92668C14.1186 6.83184 14.0573 6.74927 13.9763 6.68968L9.10604 9.23796ZM9.08975 6.49468C9.29889 5.93239 9.75918 5.57153 10.2666 5.57153H13.7599C14.2673 5.57153 14.7276 5.93239 14.9372 6.49468L15.7982 8.80596C16.0566 9.49939 15.6392 10.2858 15.0135 10.2858H9.01347C8.38775 10.2858 7.97075 9.49939 8.22875 8.80596L9.09018 6.49468H9.08975ZM4.38618 15.238H10.282L9.42061 12.9267C9.38711 12.8319 9.32589 12.7493 9.24489 12.6897L4.38618 15.238ZM4.36947 12.4947C4.57904 11.9324 5.03975 11.5715 5.54675 11.5715H9.02847C9.53589 11.5715 9.99661 11.9324 10.2058 12.4947L11.0668 14.806C11.3252 15.4994 10.9082 16.2858 10.282 16.2858H4.29275C3.66704 16.2858 3.25004 15.4994 3.50847 14.806L4.36947 12.4947ZM19.7509 15.238H13.8152L18.7138 12.6901C18.7905 12.7441 18.8522 12.8255 18.8908 12.9271L19.7513 15.238H19.7509ZM14.9762 11.5715C14.4688 11.5715 14.008 11.9324 13.7989 12.4947L12.9379 14.806C12.6795 15.4994 13.0965 16.2858 13.7226 16.2858H19.7513C20.377 16.2858 20.794 15.4994 20.5356 14.806L19.6742 12.4947C19.4663 11.9324 19.006 11.5715 18.4986 11.5715H14.9762Z" fill="white"/>
</g>
<defs>
<clipPath id="clip0_1825_2568">
<rect width="24" height="24" fill="white"/>
</clipPath>
</defs>
</svg>
