<svg width="24" height="24" viewBox="0 0 24 24" fill="none" xmlns="http://www.w3.org/2000/svg">
<g clip-path="url(#clip0_1789_1475)">
<path d="M12 24C18.627 24 24 18.627 24 12C24 5.373 18.627 0 12 0C5.373 0 0 5.373 0 12C0 18.627 5.373 24 12 24Z" fill="#F7931A"/>
<path d="M17.274 10.515C17.509 8.943 16.312 8.098 14.675 7.534L15.206 5.404L13.91 5.081L13.393 7.155C13.053 7.069 12.703 6.99 12.354 6.91L12.875 4.823L11.58 4.5L11.05 6.63C10.767 6.565 10.49 6.502 10.221 6.434L10.223 6.428L8.435 5.981L8.09 7.366C8.09 7.366 9.052 7.586 9.032 7.6C9.557 7.731 9.652 8.078 9.635 8.354L9.031 10.781C9.067 10.789 9.114 10.803 9.166 10.823L9.029 10.789L8.181 14.189C8.117 14.348 7.954 14.587 7.586 14.496C7.6 14.515 6.645 14.261 6.645 14.261L6 15.745L7.688 16.165C8.001 16.245 8.308 16.327 8.611 16.404L8.074 18.558L9.37 18.881L9.9 16.751C10.255 16.846 10.598 16.934 10.934 17.018L10.404 19.139L11.701 19.462L12.237 17.312C14.448 17.731 16.11 17.562 16.81 15.562C17.374 13.953 16.782 13.024 15.619 12.419C16.466 12.223 17.104 11.666 17.274 10.515ZM14.311 14.668C13.911 16.278 11.201 15.408 10.321 15.19L11.034 12.336C11.913 12.556 14.731 12.99 14.311 14.668ZM14.713 10.492C14.348 11.956 12.092 11.212 11.36 11.029L12.005 8.442C12.736 8.624 15.094 8.964 14.713 10.492Z" fill="white"/>
</g>
<defs>
<clipPath id="clip0_1789_1475">
<rect width="24" height="24" fill="white"/>
</clipPath>
</defs>
</svg>
